<svg width="48" height="48" viewBox="0 0 48 48" fill="none" xmlns="http://www.w3.org/2000/svg">
<path d="M24 47.5C11.0452 47.5 0.5 36.9548 0.5 24C0.5 11.0452 11.0452 0.5 24 0.5C36.9548 0.5 47.5 11.0452 47.5 24C47.5 36.9548 36.9548 47.5 24 47.5ZM24 1.08835C11.3665 1.08835 1.08835 11.3665 1.08835 24C1.08835 36.6335 11.3665 46.9116 24 46.9116C36.6335 46.9116 46.9116 36.6335 46.9116 24C46.9116 11.3665 36.6335 1.08835 24 1.08835Z" fill="white"/>
<path d="M24 47.5C11.0452 47.5 0.5 36.9548 0.5 24C0.5 11.0452 11.0452 0.5 24 0.5C36.9548 0.5 47.5 11.0452 47.5 24C47.5 36.9548 36.9548 47.5 24 47.5ZM24 1.08835C11.3665 1.08835 1.08835 11.3665 1.08835 24C1.08835 36.6335 11.3665 46.9116 24 46.9116C36.6335 46.9116 46.9116 36.6335 46.9116 24C46.9116 11.3665 36.6335 1.08835 24 1.08835Z" fill="black"/>
<path d="M24 47.5C11.0452 47.5 0.5 36.9548 0.5 24C0.5 11.0452 11.0452 0.5 24 0.5C36.9548 0.5 47.5 11.0452 47.5 24C47.5 36.9548 36.9548 47.5 24 47.5ZM24 1.08835C11.3665 1.08835 1.08835 11.3665 1.08835 24C1.08835 36.6335 11.3665 46.9116 24 46.9116C36.6335 46.9116 46.9116 36.6335 46.9116 24C46.9116 11.3665 36.6335 1.08835 24 1.08835Z" stroke="white"/>
</svg>
