<svg width="440" height="532" viewBox="0 0 440 532" fill="none" xmlns="http://www.w3.org/2000/svg">
<path d="M102.737 46.8928L70.3079 151.511C70.3079 151.511 115.085 437.299 104.831 434.915L126.91 452.078L101.185 158.637L102.799 46.8547L102.737 46.8928Z" fill="#03899E"/>
<path d="M163.84 452.311L186.054 422.856L170.051 118.595L102.737 46.893L135.344 174.669L163.84 452.311Z" fill="#0E3D5B"/>
<path d="M136.125 146.01L102.737 46.893L101.123 158.676L126.245 464.742L163.84 452.311L136.125 146.01Z" fill="#06768D"/>
<path d="M201.638 132.925L321.137 50.1245L273.786 177.908L201.638 132.925Z" fill="#0CE4E7"/>
<path d="M153.253 405.091C158.079 407.578 198.23 450.481 198.23 450.481L273.849 171.251L201.638 132.924L153.253 405.091Z" fill="#08637D"/>
<path d="M169.836 387.093C169.836 387.093 213.602 178.101 226.432 183.08C239.263 188.059 196.082 410.951 196.082 410.951L169.848 387.044L169.836 387.093Z" fill="#06768D"/>
<path d="M230.353 457.949L327.776 190.459L273.851 171.251L198.231 450.481L230.353 457.949Z" fill="#102A4B"/>
<path d="M257.203 439.082L230.351 457.95L327.773 190.46L356.879 181.729L257.203 439.082Z" fill="#08637D"/>
<path d="M327.775 190.46L321.138 50.1247L273.85 171.251L327.775 190.46Z" fill="#08637D"/>
<path d="M356.879 181.729L321.136 50.1243L327.774 190.459L356.879 181.729Z" fill="#0E3D5B"/>
<path d="M306.348 314.078L389.011 295.367L328.077 354.169L306.348 314.078Z" fill="#08637D"/>
<path d="M330.086 350.539L210.496 485.011C210.496 485.011 203.721 453.071 202.112 450.649L306.409 314.04L330.148 350.501L330.086 350.539Z" fill="#0B506C"/>
<path d="M330.088 350.538L210.497 485.01C208.38 475.43 205.665 460.667 204.636 459.167L311.048 321.212L330.099 350.489L330.088 350.538Z" fill="#102A4B"/>
<path d="M223.815 496.092L350.581 372.692L330.086 350.539L210.434 485.049L223.815 496.092Z" fill="#0B506C"/>
<path d="M242.479 491.709L223.816 496.091L350.582 372.691L367.317 374.322L242.479 491.709Z" fill="#08637D"/>
<path d="M350.582 372.692L389.011 295.367L330.087 350.539L350.582 372.692Z" fill="#03899E"/>
<path d="M367.316 374.323L389.01 295.367L350.581 372.692L367.316 374.323Z" fill="#06768D"/>
<path d="M31.7918 344.755L45.1382 267.062L76.1747 336.634L31.7918 344.755Z" fill="#0E3D5B"/>
<path d="M115.223 462.913C117.999 462.14 151.863 475.791 151.863 475.791L73.6226 333.939L31.7808 344.805L115.223 462.913Z" fill="#03899E"/>
<path d="M166.827 467.031L101.254 321.977L73.6219 333.94L151.862 475.792L166.827 467.031Z" fill="#0B506C"/>
<path d="M169.693 449.468L166.829 467.031L101.255 321.977L108.922 307.685L169.693 449.468Z" fill="#0E3D5B"/>
<path d="M101.254 321.977C67.9266 290.747 80.7207 303.177 45.1382 267.062L76.1631 336.684L101.304 321.989L101.254 321.977Z" fill="#08637D"/>
<path d="M108.921 307.684L45.1382 267.062L101.254 321.977L108.921 307.684Z" fill="#03899E"/>
<path d="M162.106 314.586L132.86 409.385L167.094 417.344L199.996 394.104L209.474 353.335L187.294 332.734L162.106 314.586Z" fill="#03899E"/>
<path d="M127.083 358.346L162.107 314.586L132.862 409.386L127.083 358.346Z" fill="#0B506C"/>
<path d="M146.38 473.624L132.86 409.385L162.106 314.586L170.763 418.197L163.626 491.975L146.38 473.624Z" fill="#08637D"/>
<path d="M200.331 477.447L199.996 394.104L170.391 415.012L163.626 491.975L200.331 477.447Z" fill="#0B506C"/>
<path d="M209.715 456.461L200.332 477.447L199.997 394.104L209.475 353.336L209.715 456.461Z" fill="#102A4B"/>
<path d="M170.051 118.595L136.125 146.01L102.737 46.8929L170.051 118.595Z" fill="#03899E"/>
<path d="M101.238 152.029L121.453 316.009L119.847 148.791L101.238 152.029Z" fill="#0CE4E7"/>
<path d="M259.866 374.979L336.534 187.872L327.773 190.459L259.866 374.979Z" fill="#0CE4E7"/>
<path d="M132.861 409.385L149.72 353.732L137.134 410.378L139.45 440.756L132.861 409.385Z" fill="#0CE4E7"/>
<path d="M31.793 344.757L139.145 470.787L115.224 462.915L31.793 344.757Z" fill="#0CE4E7"/>
<path d="M350.58 372.692L297.373 424.465L360.572 373.702L350.58 372.692Z" fill="#03899E"/>
<path d="M70.3082 151.511L101.238 152.03L102.737 46.8928L70.3082 151.511Z" fill="#0B506C"/>
<path d="M286.015 174.079C275.033 172.314 274.291 172.772 271.046 183.312C272.783 172.421 272.319 171.683 261.685 168.423C272.666 170.188 273.409 169.73 276.654 159.19C274.917 170.08 275.381 170.819 286.015 174.079Z" fill="#B0E8EC"/>
<path d="M153.278 121.681C142.297 119.916 141.554 120.374 138.309 130.914C140.046 120.023 139.582 119.285 128.948 116.024C139.93 117.789 140.672 117.332 143.917 106.792C142.18 117.682 142.644 118.421 153.278 121.681Z" fill="#B0E8EC"/>
<path d="M182.175 420.852C170.842 419.005 170.088 419.512 166.773 430.352C168.591 419.112 168.077 418.362 157.141 415.032C168.475 416.879 169.229 416.371 172.543 405.532C170.725 416.771 171.24 417.521 182.175 420.852Z" fill="#B0E8EC"/>
<path d="M84.421 338.552C73.0874 336.705 72.3335 337.213 69.0188 348.052C70.837 336.812 70.3226 336.062 59.3869 332.732C70.7205 334.579 71.4743 334.071 74.789 323.232C72.9708 334.471 73.4853 335.221 84.421 338.552Z" fill="#B0E8EC"/>
</svg>
